<svg width="200" height="200" viewBox="0 0 200 200" fill="none" xmlns="http://www.w3.org/2000/svg">
  <!-- Background -->
  <rect width="200" height="200" fill="#FFFFFF"/>
  
  <!-- Document frame -->
  <g transform="translate(40, 40)">
    <!-- Main document shape -->
    <path d="M0 0 L100 0 L120 20 L120 120 L0 120 Z" fill="#FFFFFF" stroke="#334155" stroke-width="3"/>
    <!-- Folded corner -->
    <path d="M100 0 L100 20 L120 20" fill="#E0F7FF" stroke="#334155" stroke-width="3"/>
    
    <!-- Pixel T -->
    <g transform="translate(12, 35)">
      <rect x="0" y="0" width="6" height="6" rx="1" fill="#334155"/>
      <rect x="6" y="0" width="6" height="6" rx="1" fill="#334155"/>
      <rect x="12" y="0" width="6" height="6" rx="1" fill="#334155"/>
      <rect x="18" y="0" width="6" height="6" rx="1" fill="#334155"/>
      <rect x="24" y="0" width="6" height="6" rx="1" fill="#334155"/>
      <rect x="12" y="8" width="6" height="6" rx="1" fill="#334155"/>
      <rect x="12" y="16" width="6" height="6" rx="1" fill="#334155"/>
      <rect x="12" y="24" width="6" height="6" rx="1" fill="#334155"/>
      <rect x="12" y="32" width="6" height="6" rx="1" fill="#334155"/>
    </g>
    
    <!-- Pixel A -->
    <g transform="translate(45, 35)">
      <rect x="6" y="0" width="6" height="6" rx="1" fill="#0EA5E9"/>
      <rect x="12" y="0" width="6" height="6" rx="1" fill="#0EA5E9"/>
      <rect x="18" y="0" width="6" height="6" rx="1" fill="#0EA5E9"/>
      <rect x="0" y="8" width="6" height="6" rx="1" fill="#0EA5E9"/>
      <rect x="24" y="8" width="6" height="6" rx="1" fill="#0EA5E9"/>
      <rect x="0" y="16" width="6" height="6" rx="1" fill="#0EA5E9"/>
      <rect x="6" y="16" width="6" height="6" rx="1" fill="#0EA5E9"/>
      <rect x="12" y="16" width="6" height="6" rx="1" fill="#0EA5E9"/>
      <rect x="18" y="16" width="6" height="6" rx="1" fill="#0EA5E9"/>
      <rect x="24" y="16" width="6" height="6" rx="1" fill="#0EA5E9"/>
      <rect x="0" y="24" width="6" height="6" rx="1" fill="#0EA5E9"/>
      <rect x="24" y="24" width="6" height="6" rx="1" fill="#0EA5E9"/>
      <rect x="0" y="32" width="6" height="6" rx="1" fill="#0EA5E9"/>
      <rect x="24" y="32" width="6" height="6" rx="1" fill="#0EA5E9"/>
    </g>
    
    <!-- Pixel B -->
    <g transform="translate(82, 35)">
      <rect x="0" y="0" width="6" height="6" rx="1" fill="#334155"/>
      <rect x="6" y="0" width="6" height="6" rx="1" fill="#334155"/>
      <rect x="12" y="0" width="6" height="6" rx="1" fill="#334155"/>
      <rect x="18" y="0" width="6" height="6" rx="1" fill="#334155"/>
      <rect x="0" y="8" width="6" height="6" rx="1" fill="#334155"/>
      <rect x="24" y="8" width="6" height="6" rx="1" fill="#334155"/>
      <rect x="0" y="16" width="6" height="6" rx="1" fill="#334155"/>
      <rect x="6" y="16" width="6" height="6" rx="1" fill="#334155"/>
      <rect x="12" y="16" width="6" height="6" rx="1" fill="#334155"/>
      <rect x="18" y="16" width="6" height="6" rx="1" fill="#334155"/>
      <rect x="0" y="24" width="6" height="6" rx="1" fill="#334155"/>
      <rect x="24" y="24" width="6" height="6" rx="1" fill="#334155"/>
      <rect x="0" y="32" width="6" height="6" rx="1" fill="#334155"/>
      <rect x="6" y="32" width="6" height="6" rx="1" fill="#334155"/>
      <rect x="12" y="32" width="6" height="6" rx="1" fill="#334155"/>
      <rect x="18" y="32" width="6" height="6" rx="1" fill="#334155"/>
    </g>
    
    <!-- Underline -->
    <rect x="12" y="80" width="96" height="3" fill="#334155"/>
  </g>
</svg>
